<mxfile modified="2022-08-09T08:10:32.262Z" host="app.diagrams.net" agent="5.0 (Windows NT 10.0; Win64; x64) AppleWebKit/537.36 (KHTML, like Gecko) Chrome/103.0.5060.134 Safari/537.36 Edg/103.0.1264.77" etag="nGksOgwci37PHvC1gBnI" version="20.2.3" type="github">
  <diagram id="Ht1M8jgEwFfnCIfOTk4-" name="Page-1">
    <mxGraphModel dx="2605" dy="951" grid="1" gridSize="10" guides="1" tooltips="1" connect="1" arrows="1" fold="1" page="1" pageScale="1" pageWidth="827" pageHeight="1169" math="0" shadow="0">
      <root>
        <mxCell id="0" />
        <mxCell id="1" parent="0" />
        <mxCell id="IFNf2uhesNQWuGmL52Zz-257" value="" style="rounded=1;whiteSpace=wrap;html=1;shadow=0;dashed=1;fontSize=12;fontColor=#00994D;strokeColor=#66B2FF;strokeWidth=2;fillColor=none;arcSize=7;" vertex="1" parent="1">
          <mxGeometry x="468.99" y="390" width="340" height="140" as="geometry" />
        </mxCell>
        <mxCell id="IFNf2uhesNQWuGmL52Zz-225" value="" style="rounded=1;whiteSpace=wrap;html=1;shadow=0;dashed=1;fontSize=12;fontColor=#00994D;strokeColor=#994C00;strokeWidth=2;fillColor=none;arcSize=7;" vertex="1" parent="1">
          <mxGeometry x="71.25" y="630" width="472.5" height="230" as="geometry" />
        </mxCell>
        <mxCell id="IFNf2uhesNQWuGmL52Zz-185" value="" style="rounded=1;whiteSpace=wrap;html=1;shadow=0;dashed=1;fontSize=12;fontColor=#00994D;strokeColor=#00994D;strokeWidth=2;fillColor=none;arcSize=7;" vertex="1" parent="1">
          <mxGeometry x="470" y="105" width="340" height="185" as="geometry" />
        </mxCell>
        <mxCell id="IFNf2uhesNQWuGmL52Zz-194" value="" style="rounded=1;whiteSpace=wrap;html=1;shadow=0;dashed=1;fontSize=12;fontColor=#00994D;strokeColor=#FF8000;strokeWidth=2;fillColor=none;arcSize=7;" vertex="1" parent="1">
          <mxGeometry x="471.5" y="300" width="338.5" height="80" as="geometry" />
        </mxCell>
        <mxCell id="IFNf2uhesNQWuGmL52Zz-183" value="" style="rounded=1;whiteSpace=wrap;html=1;shadow=0;dashed=1;fontSize=12;fontColor=#00994D;strokeColor=#990099;strokeWidth=2;fillColor=none;arcSize=7;" vertex="1" parent="1">
          <mxGeometry x="90" y="105" width="370" height="515" as="geometry" />
        </mxCell>
        <mxCell id="IFNf2uhesNQWuGmL52Zz-66" value="" style="rounded=1;whiteSpace=wrap;html=1;shadow=0;strokeColor=#F19C99;fillColor=none;dashed=1;strokeWidth=2;arcSize=11;" vertex="1" parent="1">
          <mxGeometry x="-95" y="105" width="150" height="725" as="geometry" />
        </mxCell>
        <mxCell id="IFNf2uhesNQWuGmL52Zz-21" value="" style="edgeStyle=orthogonalEdgeStyle;rounded=0;orthogonalLoop=1;jettySize=auto;html=1;fontSize=13;" edge="1" parent="1" source="IFNf2uhesNQWuGmL52Zz-1" target="IFNf2uhesNQWuGmL52Zz-6">
          <mxGeometry relative="1" as="geometry" />
        </mxCell>
        <mxCell id="IFNf2uhesNQWuGmL52Zz-1" value="CBS" style="rounded=1;whiteSpace=wrap;html=1;fillColor=#fff2cc;strokeColor=#000000;fontSize=13;" vertex="1" parent="1">
          <mxGeometry x="-45" y="770" width="50" height="30" as="geometry" />
        </mxCell>
        <mxCell id="IFNf2uhesNQWuGmL52Zz-2" value="" style="whiteSpace=wrap;html=1;aspect=fixed;fillColor=#3333FF;strokeColor=#000000;rounded=0;shadow=0;" vertex="1" parent="1">
          <mxGeometry x="-65" y="840" width="60" height="60" as="geometry" />
        </mxCell>
        <mxCell id="IFNf2uhesNQWuGmL52Zz-3" value="" style="whiteSpace=wrap;html=1;aspect=fixed;fillColor=#00FF00;strokeColor=#000000;rounded=0;" vertex="1" parent="1">
          <mxGeometry x="-55" y="850" width="60" height="60" as="geometry" />
        </mxCell>
        <mxCell id="IFNf2uhesNQWuGmL52Zz-4" value="" style="whiteSpace=wrap;html=1;aspect=fixed;fillColor=#FF0000;strokeColor=#000000;rounded=0;" vertex="1" parent="1">
          <mxGeometry x="-45" y="860" width="60" height="60" as="geometry" />
        </mxCell>
        <mxCell id="IFNf2uhesNQWuGmL52Zz-47" style="edgeStyle=orthogonalEdgeStyle;rounded=0;orthogonalLoop=1;jettySize=auto;html=1;exitX=0.5;exitY=0;exitDx=0;exitDy=0;entryX=0.5;entryY=1;entryDx=0;entryDy=0;fontSize=13;" edge="1" parent="1" source="IFNf2uhesNQWuGmL52Zz-5" target="IFNf2uhesNQWuGmL52Zz-7">
          <mxGeometry relative="1" as="geometry" />
        </mxCell>
        <mxCell id="IFNf2uhesNQWuGmL52Zz-5" value="C3_1_1" style="rounded=1;whiteSpace=wrap;html=1;fillColor=#99FFFF;strokeColor=#000000;fontSize=13;" vertex="1" parent="1">
          <mxGeometry x="-45" y="670" width="50" height="30" as="geometry" />
        </mxCell>
        <mxCell id="IFNf2uhesNQWuGmL52Zz-46" style="edgeStyle=orthogonalEdgeStyle;rounded=0;orthogonalLoop=1;jettySize=auto;html=1;exitX=0.5;exitY=0;exitDx=0;exitDy=0;entryX=0.5;entryY=1;entryDx=0;entryDy=0;fontSize=13;" edge="1" parent="1" source="IFNf2uhesNQWuGmL52Zz-6" target="IFNf2uhesNQWuGmL52Zz-5">
          <mxGeometry relative="1" as="geometry" />
        </mxCell>
        <mxCell id="IFNf2uhesNQWuGmL52Zz-6" value="CBS" style="rounded=1;whiteSpace=wrap;html=1;fillColor=#fff2cc;strokeColor=#000000;fontSize=13;" vertex="1" parent="1">
          <mxGeometry x="-45" y="720" width="50" height="30" as="geometry" />
        </mxCell>
        <mxCell id="IFNf2uhesNQWuGmL52Zz-48" style="edgeStyle=orthogonalEdgeStyle;rounded=0;orthogonalLoop=1;jettySize=auto;html=1;exitX=0.5;exitY=0;exitDx=0;exitDy=0;entryX=0.5;entryY=1;entryDx=0;entryDy=0;fontSize=13;" edge="1" parent="1" source="IFNf2uhesNQWuGmL52Zz-7" target="IFNf2uhesNQWuGmL52Zz-16">
          <mxGeometry relative="1" as="geometry" />
        </mxCell>
        <mxCell id="IFNf2uhesNQWuGmL52Zz-7" value="CBS" style="rounded=1;whiteSpace=wrap;html=1;fillColor=#fff2cc;strokeColor=#000000;fontSize=13;" vertex="1" parent="1">
          <mxGeometry x="-45" y="620" width="50" height="30" as="geometry" />
        </mxCell>
        <mxCell id="IFNf2uhesNQWuGmL52Zz-80" style="edgeStyle=orthogonalEdgeStyle;rounded=0;orthogonalLoop=1;jettySize=auto;html=1;exitX=1;exitY=0.5;exitDx=0;exitDy=0;fontSize=13;fontColor=#3399FF;" edge="1" parent="1" source="IFNf2uhesNQWuGmL52Zz-8" target="IFNf2uhesNQWuGmL52Zz-79">
          <mxGeometry relative="1" as="geometry" />
        </mxCell>
        <mxCell id="IFNf2uhesNQWuGmL52Zz-8" value="SPPF" style="rounded=1;whiteSpace=wrap;html=1;fillColor=#99FFCC;strokeColor=#000000;fontSize=13;" vertex="1" parent="1">
          <mxGeometry x="-45" y="207" width="50" height="30" as="geometry" />
        </mxCell>
        <mxCell id="IFNf2uhesNQWuGmL52Zz-142" style="edgeStyle=orthogonalEdgeStyle;rounded=0;orthogonalLoop=1;jettySize=auto;html=1;exitX=1;exitY=0.5;exitDx=0;exitDy=0;fontSize=12;fontColor=#00994D;entryX=0;entryY=0.5;entryDx=0;entryDy=0;" edge="1" parent="1" source="IFNf2uhesNQWuGmL52Zz-9" target="IFNf2uhesNQWuGmL52Zz-33">
          <mxGeometry relative="1" as="geometry">
            <mxPoint x="616.5" y="144.9565217391305" as="targetPoint" />
          </mxGeometry>
        </mxCell>
        <mxCell id="IFNf2uhesNQWuGmL52Zz-9" value="Conv2d" style="rounded=1;whiteSpace=wrap;html=1;fillColor=#66CC00;strokeColor=#000000;" vertex="1" parent="1">
          <mxGeometry x="536.5" y="140" width="50" height="30" as="geometry" />
        </mxCell>
        <mxCell id="IFNf2uhesNQWuGmL52Zz-120" style="edgeStyle=orthogonalEdgeStyle;rounded=0;orthogonalLoop=1;jettySize=auto;html=1;exitX=0.5;exitY=0;exitDx=0;exitDy=0;entryX=0.5;entryY=1;entryDx=0;entryDy=0;fontSize=12;fontColor=#3399FF;" edge="1" parent="1" source="IFNf2uhesNQWuGmL52Zz-10" target="IFNf2uhesNQWuGmL52Zz-109">
          <mxGeometry relative="1" as="geometry" />
        </mxCell>
        <mxCell id="IFNf2uhesNQWuGmL52Zz-10" value="CBS" style="rounded=1;whiteSpace=wrap;html=1;fillColor=#fff2cc;strokeColor=#000000;" vertex="1" parent="1">
          <mxGeometry x="315" y="510" width="50" height="30" as="geometry" />
        </mxCell>
        <mxCell id="IFNf2uhesNQWuGmL52Zz-123" style="edgeStyle=orthogonalEdgeStyle;rounded=0;orthogonalLoop=1;jettySize=auto;html=1;exitX=0.5;exitY=0;exitDx=0;exitDy=0;entryX=0.5;entryY=1;entryDx=0;entryDy=0;fontSize=12;fontColor=#3399FF;" edge="1" parent="1" target="IFNf2uhesNQWuGmL52Zz-107">
          <mxGeometry relative="1" as="geometry">
            <mxPoint x="340" y="290" as="sourcePoint" />
          </mxGeometry>
        </mxCell>
        <mxCell id="IFNf2uhesNQWuGmL52Zz-11" value="CBS" style="rounded=1;whiteSpace=wrap;html=1;fillColor=#fff2cc;strokeColor=#000000;" vertex="1" parent="1">
          <mxGeometry x="315" y="280" width="50" height="30" as="geometry" />
        </mxCell>
        <mxCell id="IFNf2uhesNQWuGmL52Zz-96" style="edgeStyle=orthogonalEdgeStyle;rounded=0;orthogonalLoop=1;jettySize=auto;html=1;exitX=0.5;exitY=1;exitDx=0;exitDy=0;entryX=0.5;entryY=0;entryDx=0;entryDy=0;fontSize=13;fontColor=#3399FF;" edge="1" parent="1" source="IFNf2uhesNQWuGmL52Zz-12" target="IFNf2uhesNQWuGmL52Zz-83">
          <mxGeometry relative="1" as="geometry" />
        </mxCell>
        <mxCell id="IFNf2uhesNQWuGmL52Zz-12" value="CBS" style="rounded=1;whiteSpace=wrap;html=1;fillColor=#fff2cc;strokeColor=#000000;" vertex="1" parent="1">
          <mxGeometry x="130" y="460" width="50" height="30" as="geometry" />
        </mxCell>
        <mxCell id="IFNf2uhesNQWuGmL52Zz-91" style="edgeStyle=orthogonalEdgeStyle;rounded=0;orthogonalLoop=1;jettySize=auto;html=1;exitX=0.5;exitY=1;exitDx=0;exitDy=0;entryX=0.5;entryY=0;entryDx=0;entryDy=0;fontSize=13;fontColor=#3399FF;" edge="1" parent="1" source="IFNf2uhesNQWuGmL52Zz-13" target="IFNf2uhesNQWuGmL52Zz-82">
          <mxGeometry relative="1" as="geometry" />
        </mxCell>
        <mxCell id="IFNf2uhesNQWuGmL52Zz-13" value="Concat" style="rounded=1;whiteSpace=wrap;html=1;fillColor=#FFD966;strokeColor=#000000;" vertex="1" parent="1">
          <mxGeometry x="115" y="360" width="80" height="30" as="geometry" />
        </mxCell>
        <mxCell id="IFNf2uhesNQWuGmL52Zz-52" style="edgeStyle=orthogonalEdgeStyle;rounded=0;orthogonalLoop=1;jettySize=auto;html=1;exitX=0.5;exitY=0;exitDx=0;exitDy=0;entryX=0.5;entryY=1;entryDx=0;entryDy=0;fontSize=13;" edge="1" parent="1" source="IFNf2uhesNQWuGmL52Zz-14" target="IFNf2uhesNQWuGmL52Zz-18">
          <mxGeometry relative="1" as="geometry" />
        </mxCell>
        <mxCell id="IFNf2uhesNQWuGmL52Zz-14" value="CBS" style="rounded=1;whiteSpace=wrap;html=1;fillColor=#fff2cc;strokeColor=#000000;fontSize=13;" vertex="1" parent="1">
          <mxGeometry x="-45" y="310" width="50" height="30" as="geometry" />
        </mxCell>
        <mxCell id="IFNf2uhesNQWuGmL52Zz-50" style="edgeStyle=orthogonalEdgeStyle;rounded=0;orthogonalLoop=1;jettySize=auto;html=1;exitX=0.5;exitY=0;exitDx=0;exitDy=0;entryX=0.5;entryY=1;entryDx=0;entryDy=0;fontSize=13;" edge="1" parent="1" source="IFNf2uhesNQWuGmL52Zz-15" target="IFNf2uhesNQWuGmL52Zz-17">
          <mxGeometry relative="1" as="geometry" />
        </mxCell>
        <mxCell id="IFNf2uhesNQWuGmL52Zz-15" value="CBS" style="rounded=1;whiteSpace=wrap;html=1;fillColor=#fff2cc;strokeColor=#000000;fontSize=13;" vertex="1" parent="1">
          <mxGeometry x="-45" y="460" width="50" height="30" as="geometry" />
        </mxCell>
        <mxCell id="IFNf2uhesNQWuGmL52Zz-49" style="edgeStyle=orthogonalEdgeStyle;rounded=0;orthogonalLoop=1;jettySize=auto;html=1;exitX=0.5;exitY=0;exitDx=0;exitDy=0;entryX=0.5;entryY=1;entryDx=0;entryDy=0;fontSize=13;" edge="1" parent="1" source="IFNf2uhesNQWuGmL52Zz-16" target="IFNf2uhesNQWuGmL52Zz-15">
          <mxGeometry relative="1" as="geometry" />
        </mxCell>
        <mxCell id="IFNf2uhesNQWuGmL52Zz-86" style="edgeStyle=orthogonalEdgeStyle;rounded=0;orthogonalLoop=1;jettySize=auto;html=1;exitX=1;exitY=0.5;exitDx=0;exitDy=0;entryX=0;entryY=0.5;entryDx=0;entryDy=0;fontSize=13;fontColor=#3399FF;" edge="1" parent="1" source="IFNf2uhesNQWuGmL52Zz-16" target="IFNf2uhesNQWuGmL52Zz-84">
          <mxGeometry relative="1" as="geometry" />
        </mxCell>
        <mxCell id="IFNf2uhesNQWuGmL52Zz-16" value="C3_1_2" style="rounded=1;whiteSpace=wrap;html=1;fillColor=#99FFFF;strokeColor=#000000;fontSize=13;" vertex="1" parent="1">
          <mxGeometry x="-45" y="560" width="50" height="30" as="geometry" />
        </mxCell>
        <mxCell id="IFNf2uhesNQWuGmL52Zz-51" style="edgeStyle=orthogonalEdgeStyle;rounded=0;orthogonalLoop=1;jettySize=auto;html=1;exitX=0.5;exitY=0;exitDx=0;exitDy=0;entryX=0.5;entryY=1;entryDx=0;entryDy=0;fontSize=13;" edge="1" parent="1" source="IFNf2uhesNQWuGmL52Zz-17" target="IFNf2uhesNQWuGmL52Zz-14">
          <mxGeometry relative="1" as="geometry" />
        </mxCell>
        <mxCell id="IFNf2uhesNQWuGmL52Zz-85" style="edgeStyle=orthogonalEdgeStyle;rounded=0;orthogonalLoop=1;jettySize=auto;html=1;exitX=1;exitY=0.5;exitDx=0;exitDy=0;entryX=0;entryY=0.5;entryDx=0;entryDy=0;fontSize=13;fontColor=#3399FF;" edge="1" parent="1" source="IFNf2uhesNQWuGmL52Zz-17" target="IFNf2uhesNQWuGmL52Zz-13">
          <mxGeometry relative="1" as="geometry" />
        </mxCell>
        <mxCell id="IFNf2uhesNQWuGmL52Zz-17" value="C3_1_3" style="rounded=1;whiteSpace=wrap;html=1;fillColor=#99FFFF;strokeColor=#000000;fontSize=13;" vertex="1" parent="1">
          <mxGeometry x="-45" y="360" width="50" height="30" as="geometry" />
        </mxCell>
        <mxCell id="IFNf2uhesNQWuGmL52Zz-63" style="edgeStyle=orthogonalEdgeStyle;rounded=0;orthogonalLoop=1;jettySize=auto;html=1;exitX=0.5;exitY=0;exitDx=0;exitDy=0;entryX=0.5;entryY=1;entryDx=0;entryDy=0;fontSize=13;" edge="1" parent="1" source="IFNf2uhesNQWuGmL52Zz-18" target="IFNf2uhesNQWuGmL52Zz-8">
          <mxGeometry relative="1" as="geometry" />
        </mxCell>
        <mxCell id="IFNf2uhesNQWuGmL52Zz-18" value="C3_1_1" style="rounded=1;whiteSpace=wrap;html=1;fillColor=#99FFFF;strokeColor=#000000;fontSize=13;" vertex="1" parent="1">
          <mxGeometry x="-45" y="260" width="50" height="30" as="geometry" />
        </mxCell>
        <mxCell id="IFNf2uhesNQWuGmL52Zz-150" style="edgeStyle=orthogonalEdgeStyle;rounded=0;orthogonalLoop=1;jettySize=auto;html=1;exitX=1;exitY=0.5;exitDx=0;exitDy=0;entryX=0;entryY=0.5;entryDx=0;entryDy=0;fontSize=12;fontColor=#00994D;" edge="1" parent="1" source="IFNf2uhesNQWuGmL52Zz-33" target="IFNf2uhesNQWuGmL52Zz-147">
          <mxGeometry relative="1" as="geometry" />
        </mxCell>
        <mxCell id="IFNf2uhesNQWuGmL52Zz-33" value="view" style="rounded=1;whiteSpace=wrap;html=1;fillColor=#f5f5f5;strokeColor=#666666;fontColor=#333333;" vertex="1" parent="1">
          <mxGeometry x="616.5" y="140" width="50" height="30" as="geometry" />
        </mxCell>
        <mxCell id="IFNf2uhesNQWuGmL52Zz-36" value="" style="whiteSpace=wrap;html=1;aspect=fixed;fillColor=#3333FF;strokeColor=#000000;rounded=0;shadow=0;" vertex="1" parent="1">
          <mxGeometry x="-65" y="840" width="60" height="60" as="geometry" />
        </mxCell>
        <mxCell id="IFNf2uhesNQWuGmL52Zz-37" value="" style="whiteSpace=wrap;html=1;aspect=fixed;fillColor=#00FF00;strokeColor=#000000;rounded=0;" vertex="1" parent="1">
          <mxGeometry x="-55" y="850" width="60" height="60" as="geometry" />
        </mxCell>
        <mxCell id="IFNf2uhesNQWuGmL52Zz-38" value="" style="whiteSpace=wrap;html=1;aspect=fixed;fillColor=#FF0000;strokeColor=#000000;rounded=0;" vertex="1" parent="1">
          <mxGeometry x="-45" y="860" width="60" height="60" as="geometry" />
        </mxCell>
        <mxCell id="IFNf2uhesNQWuGmL52Zz-43" value="" style="endArrow=classic;html=1;rounded=0;exitX=0.75;exitY=0;exitDx=0;exitDy=0;entryX=0.5;entryY=1;entryDx=0;entryDy=0;fontSize=13;" edge="1" parent="1" source="IFNf2uhesNQWuGmL52Zz-36" target="IFNf2uhesNQWuGmL52Zz-1">
          <mxGeometry width="50" height="50" relative="1" as="geometry">
            <mxPoint x="620" y="380" as="sourcePoint" />
            <mxPoint x="670" y="330" as="targetPoint" />
          </mxGeometry>
        </mxCell>
        <mxCell id="IFNf2uhesNQWuGmL52Zz-53" value="0" style="text;html=1;strokeColor=none;fillColor=none;align=center;verticalAlign=middle;whiteSpace=wrap;rounded=0;shadow=0;fontSize=12;" vertex="1" parent="1">
          <mxGeometry x="-65" y="770" width="15" height="30" as="geometry" />
        </mxCell>
        <mxCell id="IFNf2uhesNQWuGmL52Zz-54" value="5" style="text;html=1;strokeColor=none;fillColor=none;align=center;verticalAlign=middle;whiteSpace=wrap;rounded=0;shadow=0;fontSize=12;" vertex="1" parent="1">
          <mxGeometry x="-65" y="460" width="15" height="30" as="geometry" />
        </mxCell>
        <mxCell id="IFNf2uhesNQWuGmL52Zz-55" value="4" style="text;html=1;strokeColor=none;fillColor=none;align=center;verticalAlign=middle;whiteSpace=wrap;rounded=0;shadow=0;fontSize=12;" vertex="1" parent="1">
          <mxGeometry x="-65" y="560" width="15" height="30" as="geometry" />
        </mxCell>
        <mxCell id="IFNf2uhesNQWuGmL52Zz-56" value="3" style="text;html=1;strokeColor=none;fillColor=none;align=center;verticalAlign=middle;whiteSpace=wrap;rounded=0;shadow=0;fontSize=12;" vertex="1" parent="1">
          <mxGeometry x="-65" y="620" width="15" height="30" as="geometry" />
        </mxCell>
        <mxCell id="IFNf2uhesNQWuGmL52Zz-57" value="2" style="text;html=1;strokeColor=none;fillColor=none;align=center;verticalAlign=middle;whiteSpace=wrap;rounded=0;shadow=0;fontSize=12;" vertex="1" parent="1">
          <mxGeometry x="-65" y="670" width="15" height="30" as="geometry" />
        </mxCell>
        <mxCell id="IFNf2uhesNQWuGmL52Zz-58" value="1" style="text;html=1;strokeColor=none;fillColor=none;align=center;verticalAlign=middle;whiteSpace=wrap;rounded=0;shadow=0;fontSize=12;" vertex="1" parent="1">
          <mxGeometry x="-65" y="720" width="15" height="30" as="geometry" />
        </mxCell>
        <mxCell id="IFNf2uhesNQWuGmL52Zz-59" value="9" style="text;html=1;strokeColor=none;fillColor=none;align=center;verticalAlign=middle;whiteSpace=wrap;rounded=0;shadow=0;fontSize=12;" vertex="1" parent="1">
          <mxGeometry x="-65" y="200" width="15" height="30" as="geometry" />
        </mxCell>
        <mxCell id="IFNf2uhesNQWuGmL52Zz-60" value="8" style="text;html=1;strokeColor=none;fillColor=none;align=center;verticalAlign=middle;whiteSpace=wrap;rounded=0;shadow=0;fontSize=12;" vertex="1" parent="1">
          <mxGeometry x="-65" y="260" width="15" height="30" as="geometry" />
        </mxCell>
        <mxCell id="IFNf2uhesNQWuGmL52Zz-61" value="7" style="text;html=1;strokeColor=none;fillColor=none;align=center;verticalAlign=middle;whiteSpace=wrap;rounded=0;shadow=0;fontSize=12;" vertex="1" parent="1">
          <mxGeometry x="-65" y="310" width="15" height="30" as="geometry" />
        </mxCell>
        <mxCell id="IFNf2uhesNQWuGmL52Zz-62" value="6" style="text;html=1;strokeColor=none;fillColor=none;align=center;verticalAlign=middle;whiteSpace=wrap;rounded=0;shadow=0;fontSize=12;" vertex="1" parent="1">
          <mxGeometry x="-65" y="360" width="15" height="30" as="geometry" />
        </mxCell>
        <mxCell id="IFNf2uhesNQWuGmL52Zz-67" value="&lt;font size=&quot;1&quot; color=&quot;#f19c99&quot;&gt;&lt;b style=&quot;font-size: 15px;&quot;&gt;Backbone&lt;/b&gt;&lt;/font&gt;" style="text;html=1;strokeColor=none;fillColor=none;align=center;verticalAlign=middle;whiteSpace=wrap;rounded=0;shadow=0;dashed=1;" vertex="1" parent="1">
          <mxGeometry x="-60" y="105" width="80" height="30" as="geometry" />
        </mxCell>
        <mxCell id="IFNf2uhesNQWuGmL52Zz-68" value="&lt;font color=&quot;#3399ff&quot; style=&quot;font-size: 10px;&quot;&gt;20*20*256&lt;/font&gt;" style="text;html=1;strokeColor=none;fillColor=none;align=center;verticalAlign=middle;whiteSpace=wrap;rounded=0;shadow=0;dashed=1;fontColor=#F19C99;" vertex="1" parent="1">
          <mxGeometry x="160" y="245" width="60" height="30" as="geometry" />
        </mxCell>
        <mxCell id="IFNf2uhesNQWuGmL52Zz-69" value="&lt;font color=&quot;#3399ff&quot; style=&quot;font-size: 10px;&quot;&gt;40*40*128&lt;/font&gt;" style="text;html=1;strokeColor=none;fillColor=none;align=center;verticalAlign=middle;whiteSpace=wrap;rounded=0;shadow=0;dashed=1;fontColor=#F19C99;" vertex="1" parent="1">
          <mxGeometry x="160" y="485" width="60" height="30" as="geometry" />
        </mxCell>
        <mxCell id="IFNf2uhesNQWuGmL52Zz-70" value="&lt;font color=&quot;#3399ff&quot; style=&quot;font-size: 10px;&quot;&gt;40*40*256&lt;/font&gt;" style="text;html=1;strokeColor=none;fillColor=none;align=center;verticalAlign=middle;whiteSpace=wrap;rounded=0;shadow=0;dashed=1;fontColor=#F19C99;" vertex="1" parent="1">
          <mxGeometry x="160" y="443" width="60" height="20" as="geometry" />
        </mxCell>
        <mxCell id="IFNf2uhesNQWuGmL52Zz-71" value="&lt;font color=&quot;#3399ff&quot; style=&quot;font-size: 10px;&quot;&gt;640*640*3&lt;/font&gt;" style="text;html=1;strokeColor=none;fillColor=none;align=center;verticalAlign=middle;whiteSpace=wrap;rounded=0;shadow=0;dashed=1;fontColor=#F19C99;" vertex="1" parent="1">
          <mxGeometry x="-50" y="920" width="60" height="30" as="geometry" />
        </mxCell>
        <mxCell id="IFNf2uhesNQWuGmL52Zz-72" value="&lt;font color=&quot;#3399ff&quot; style=&quot;font-size: 10px;&quot;&gt;40*40*256&lt;/font&gt;" style="text;html=1;strokeColor=none;fillColor=none;align=center;verticalAlign=middle;whiteSpace=wrap;rounded=0;shadow=0;dashed=1;fontColor=#F19C99;" vertex="1" parent="1">
          <mxGeometry x="-87.5" y="438" width="60" height="30" as="geometry" />
        </mxCell>
        <mxCell id="IFNf2uhesNQWuGmL52Zz-73" value="&lt;font color=&quot;#3399ff&quot; style=&quot;font-size: 10px;&quot;&gt;20*20*512&lt;/font&gt;" style="text;html=1;strokeColor=none;fillColor=none;align=center;verticalAlign=middle;whiteSpace=wrap;rounded=0;shadow=0;dashed=1;fontColor=#F19C99;" vertex="1" parent="1">
          <mxGeometry x="-87.5" y="288" width="60" height="30" as="geometry" />
        </mxCell>
        <mxCell id="IFNf2uhesNQWuGmL52Zz-74" value="&lt;font color=&quot;#3399ff&quot; style=&quot;font-size: 10px;&quot;&gt;40*40*512&lt;/font&gt;" style="text;html=1;strokeColor=none;fillColor=none;align=center;verticalAlign=middle;whiteSpace=wrap;rounded=0;shadow=0;dashed=1;fontColor=#F19C99;" vertex="1" parent="1">
          <mxGeometry x="160" y="386" width="60" height="30" as="geometry" />
        </mxCell>
        <mxCell id="IFNf2uhesNQWuGmL52Zz-75" value="&lt;font color=&quot;#3399ff&quot; style=&quot;font-size: 10px;&quot;&gt;20*20*512&lt;/font&gt;" style="text;html=1;strokeColor=none;fillColor=none;align=center;verticalAlign=middle;whiteSpace=wrap;rounded=0;shadow=0;dashed=1;fontColor=#F19C99;" vertex="1" parent="1">
          <mxGeometry x="-20" y="178" width="60" height="30" as="geometry" />
        </mxCell>
        <mxCell id="IFNf2uhesNQWuGmL52Zz-76" value="&lt;font color=&quot;#3399ff&quot; style=&quot;font-size: 10px;&quot;&gt;320*320*32&lt;/font&gt;" style="text;html=1;strokeColor=none;fillColor=none;align=center;verticalAlign=middle;whiteSpace=wrap;rounded=0;shadow=0;dashed=1;fontColor=#F19C99;" vertex="1" parent="1">
          <mxGeometry x="-87.5" y="748" width="60" height="30" as="geometry" />
        </mxCell>
        <mxCell id="IFNf2uhesNQWuGmL52Zz-77" value="&lt;font color=&quot;#3399ff&quot; style=&quot;font-size: 10px;&quot;&gt;160*160*4&lt;/font&gt;" style="text;html=1;strokeColor=none;fillColor=none;align=center;verticalAlign=middle;whiteSpace=wrap;rounded=0;shadow=0;dashed=1;fontColor=#F19C99;" vertex="1" parent="1">
          <mxGeometry x="-87.5" y="698" width="60" height="30" as="geometry" />
        </mxCell>
        <mxCell id="IFNf2uhesNQWuGmL52Zz-78" value="&lt;font color=&quot;#3399ff&quot; style=&quot;font-size: 10px;&quot;&gt;80*80*128&lt;/font&gt;" style="text;html=1;strokeColor=none;fillColor=none;align=center;verticalAlign=middle;whiteSpace=wrap;rounded=0;shadow=0;dashed=1;fontColor=#F19C99;" vertex="1" parent="1">
          <mxGeometry x="-87.5" y="598" width="60" height="30" as="geometry" />
        </mxCell>
        <mxCell id="IFNf2uhesNQWuGmL52Zz-89" style="edgeStyle=orthogonalEdgeStyle;rounded=0;orthogonalLoop=1;jettySize=auto;html=1;exitX=0.5;exitY=1;exitDx=0;exitDy=0;entryX=0.5;entryY=0;entryDx=0;entryDy=0;fontSize=13;fontColor=#3399FF;" edge="1" parent="1" source="IFNf2uhesNQWuGmL52Zz-79">
          <mxGeometry relative="1" as="geometry">
            <mxPoint x="155" y="290" as="targetPoint" />
          </mxGeometry>
        </mxCell>
        <mxCell id="IFNf2uhesNQWuGmL52Zz-132" style="edgeStyle=orthogonalEdgeStyle;rounded=0;orthogonalLoop=1;jettySize=auto;html=1;exitX=1;exitY=0.5;exitDx=0;exitDy=0;entryX=0;entryY=0.5;entryDx=0;entryDy=0;fontSize=12;fontColor=#00994D;" edge="1" parent="1" source="IFNf2uhesNQWuGmL52Zz-79" target="IFNf2uhesNQWuGmL52Zz-107">
          <mxGeometry relative="1" as="geometry" />
        </mxCell>
        <mxCell id="IFNf2uhesNQWuGmL52Zz-79" value="CBS" style="rounded=1;whiteSpace=wrap;html=1;fillColor=#fff2cc;strokeColor=#000000;fontSize=13;" vertex="1" parent="1">
          <mxGeometry x="130" y="207" width="50" height="30" as="geometry" />
        </mxCell>
        <mxCell id="IFNf2uhesNQWuGmL52Zz-90" style="edgeStyle=orthogonalEdgeStyle;rounded=0;orthogonalLoop=1;jettySize=auto;html=1;exitX=0.5;exitY=1;exitDx=0;exitDy=0;entryX=0.5;entryY=0;entryDx=0;entryDy=0;fontSize=13;fontColor=#3399FF;" edge="1" parent="1" target="IFNf2uhesNQWuGmL52Zz-13">
          <mxGeometry relative="1" as="geometry">
            <mxPoint x="155" y="300.0000000000001" as="sourcePoint" />
          </mxGeometry>
        </mxCell>
        <mxCell id="IFNf2uhesNQWuGmL52Zz-92" style="edgeStyle=orthogonalEdgeStyle;rounded=0;orthogonalLoop=1;jettySize=auto;html=1;exitX=0.5;exitY=1;exitDx=0;exitDy=0;entryX=0.5;entryY=0;entryDx=0;entryDy=0;fontSize=13;fontColor=#3399FF;" edge="1" parent="1" source="IFNf2uhesNQWuGmL52Zz-82" target="IFNf2uhesNQWuGmL52Zz-12">
          <mxGeometry relative="1" as="geometry" />
        </mxCell>
        <mxCell id="IFNf2uhesNQWuGmL52Zz-82" value="C3_2_1" style="rounded=1;whiteSpace=wrap;html=1;fillColor=#F19C99;strokeColor=#000000;fontSize=13;" vertex="1" parent="1">
          <mxGeometry x="130" y="410" width="50" height="30" as="geometry" />
        </mxCell>
        <mxCell id="IFNf2uhesNQWuGmL52Zz-94" style="edgeStyle=orthogonalEdgeStyle;rounded=0;orthogonalLoop=1;jettySize=auto;html=1;exitX=0.5;exitY=1;exitDx=0;exitDy=0;entryX=0.5;entryY=0;entryDx=0;entryDy=0;fontSize=13;fontColor=#3399FF;" edge="1" parent="1" source="IFNf2uhesNQWuGmL52Zz-83" target="IFNf2uhesNQWuGmL52Zz-84">
          <mxGeometry relative="1" as="geometry" />
        </mxCell>
        <mxCell id="IFNf2uhesNQWuGmL52Zz-83" value="Upsample" style="rounded=1;whiteSpace=wrap;html=1;fillColor=#e1d5e7;strokeColor=#000000;fontSize=13;" vertex="1" parent="1">
          <mxGeometry x="112.5" y="510" width="85" height="30" as="geometry" />
        </mxCell>
        <mxCell id="IFNf2uhesNQWuGmL52Zz-118" style="edgeStyle=orthogonalEdgeStyle;rounded=0;orthogonalLoop=1;jettySize=auto;html=1;exitX=1;exitY=0.5;exitDx=0;exitDy=0;entryX=0;entryY=0.5;entryDx=0;entryDy=0;fontSize=12;fontColor=#3399FF;" edge="1" parent="1" source="IFNf2uhesNQWuGmL52Zz-84" target="IFNf2uhesNQWuGmL52Zz-110">
          <mxGeometry relative="1" as="geometry" />
        </mxCell>
        <mxCell id="IFNf2uhesNQWuGmL52Zz-84" value="Concat" style="rounded=1;whiteSpace=wrap;html=1;fillColor=#FFD966;strokeColor=#000000;" vertex="1" parent="1">
          <mxGeometry x="115" y="560" width="80" height="30" as="geometry" />
        </mxCell>
        <mxCell id="IFNf2uhesNQWuGmL52Zz-95" value="Upsample" style="rounded=1;whiteSpace=wrap;html=1;fillColor=#e1d5e7;strokeColor=#000000;fontSize=13;" vertex="1" parent="1">
          <mxGeometry x="112.5" y="280" width="85" height="30" as="geometry" />
        </mxCell>
        <mxCell id="IFNf2uhesNQWuGmL52Zz-97" value="10" style="text;html=1;strokeColor=none;fillColor=none;align=center;verticalAlign=middle;whiteSpace=wrap;rounded=0;shadow=0;fontSize=12;" vertex="1" parent="1">
          <mxGeometry x="115" y="187" width="15" height="30" as="geometry" />
        </mxCell>
        <mxCell id="IFNf2uhesNQWuGmL52Zz-99" value="12" style="text;html=1;strokeColor=none;fillColor=none;align=center;verticalAlign=middle;whiteSpace=wrap;rounded=0;shadow=0;fontSize=12;" vertex="1" parent="1">
          <mxGeometry x="115" y="335" width="15" height="30" as="geometry" />
        </mxCell>
        <mxCell id="IFNf2uhesNQWuGmL52Zz-100" value="15" style="text;html=1;strokeColor=none;fillColor=none;align=center;verticalAlign=middle;whiteSpace=wrap;rounded=0;shadow=0;fontSize=12;" vertex="1" parent="1">
          <mxGeometry x="112.5" y="483" width="15" height="30" as="geometry" />
        </mxCell>
        <mxCell id="IFNf2uhesNQWuGmL52Zz-101" value="14" style="text;html=1;strokeColor=none;fillColor=none;align=center;verticalAlign=middle;whiteSpace=wrap;rounded=0;shadow=0;fontSize=12;" vertex="1" parent="1">
          <mxGeometry x="112.5" y="440" width="15" height="30" as="geometry" />
        </mxCell>
        <mxCell id="IFNf2uhesNQWuGmL52Zz-102" value="13" style="text;html=1;strokeColor=none;fillColor=none;align=center;verticalAlign=middle;whiteSpace=wrap;rounded=0;shadow=0;fontSize=12;" vertex="1" parent="1">
          <mxGeometry x="112.5" y="390" width="15" height="30" as="geometry" />
        </mxCell>
        <mxCell id="IFNf2uhesNQWuGmL52Zz-103" value="11" style="text;html=1;strokeColor=none;fillColor=none;align=center;verticalAlign=middle;whiteSpace=wrap;rounded=0;shadow=0;fontSize=12;" vertex="1" parent="1">
          <mxGeometry x="115" y="258" width="15" height="30" as="geometry" />
        </mxCell>
        <mxCell id="IFNf2uhesNQWuGmL52Zz-104" value="16" style="text;html=1;strokeColor=none;fillColor=none;align=center;verticalAlign=middle;whiteSpace=wrap;rounded=0;shadow=0;fontSize=12;" vertex="1" parent="1">
          <mxGeometry x="112.5" y="538" width="15" height="30" as="geometry" />
        </mxCell>
        <mxCell id="IFNf2uhesNQWuGmL52Zz-105" value="&lt;font color=&quot;#3399ff&quot; style=&quot;font-size: 10px;&quot;&gt;40*40*256&lt;/font&gt;" style="text;html=1;strokeColor=none;fillColor=none;align=center;verticalAlign=middle;whiteSpace=wrap;rounded=0;shadow=0;dashed=1;fontColor=#F19C99;" vertex="1" parent="1">
          <mxGeometry x="160" y="335" width="60" height="30" as="geometry" />
        </mxCell>
        <mxCell id="IFNf2uhesNQWuGmL52Zz-106" value="&lt;font color=&quot;#3399ff&quot; style=&quot;font-size: 10px;&quot;&gt;80*80*128&lt;/font&gt;" style="text;html=1;strokeColor=none;fillColor=none;align=center;verticalAlign=middle;whiteSpace=wrap;rounded=0;shadow=0;dashed=1;fontColor=#F19C99;" vertex="1" parent="1">
          <mxGeometry x="160" y="538" width="60" height="30" as="geometry" />
        </mxCell>
        <mxCell id="IFNf2uhesNQWuGmL52Zz-134" style="edgeStyle=orthogonalEdgeStyle;rounded=0;orthogonalLoop=1;jettySize=auto;html=1;exitX=0.5;exitY=0;exitDx=0;exitDy=0;entryX=0.5;entryY=1;entryDx=0;entryDy=0;fontSize=12;fontColor=#00994D;" edge="1" parent="1" source="IFNf2uhesNQWuGmL52Zz-107" target="IFNf2uhesNQWuGmL52Zz-133">
          <mxGeometry relative="1" as="geometry" />
        </mxCell>
        <mxCell id="IFNf2uhesNQWuGmL52Zz-107" value="Concat" style="rounded=1;whiteSpace=wrap;html=1;fillColor=#FFD966;strokeColor=#000000;" vertex="1" parent="1">
          <mxGeometry x="300" y="208" width="80" height="30" as="geometry" />
        </mxCell>
        <mxCell id="IFNf2uhesNQWuGmL52Zz-122" style="edgeStyle=orthogonalEdgeStyle;rounded=0;orthogonalLoop=1;jettySize=auto;html=1;exitX=0.5;exitY=0;exitDx=0;exitDy=0;entryX=0.5;entryY=1;entryDx=0;entryDy=0;fontSize=12;fontColor=#3399FF;" edge="1" parent="1" source="IFNf2uhesNQWuGmL52Zz-108" target="IFNf2uhesNQWuGmL52Zz-11">
          <mxGeometry relative="1" as="geometry" />
        </mxCell>
        <mxCell id="IFNf2uhesNQWuGmL52Zz-140" style="edgeStyle=orthogonalEdgeStyle;rounded=0;orthogonalLoop=1;jettySize=auto;html=1;exitX=1;exitY=0.5;exitDx=0;exitDy=0;entryX=0;entryY=0.5;entryDx=0;entryDy=0;fontSize=12;fontColor=#00994D;" edge="1" parent="1" source="IFNf2uhesNQWuGmL52Zz-108" target="IFNf2uhesNQWuGmL52Zz-137">
          <mxGeometry relative="1" as="geometry">
            <Array as="points">
              <mxPoint x="430" y="380" />
              <mxPoint x="430" y="202" />
            </Array>
          </mxGeometry>
        </mxCell>
        <mxCell id="IFNf2uhesNQWuGmL52Zz-108" value="C3_2_1" style="rounded=1;whiteSpace=wrap;html=1;fillColor=#F19C99;strokeColor=#000000;fontSize=13;" vertex="1" parent="1">
          <mxGeometry x="315" y="365" width="50" height="30" as="geometry" />
        </mxCell>
        <mxCell id="IFNf2uhesNQWuGmL52Zz-121" style="edgeStyle=orthogonalEdgeStyle;rounded=0;orthogonalLoop=1;jettySize=auto;html=1;exitX=0.5;exitY=0;exitDx=0;exitDy=0;entryX=0.5;entryY=1;entryDx=0;entryDy=0;fontSize=12;fontColor=#3399FF;" edge="1" parent="1" source="IFNf2uhesNQWuGmL52Zz-109" target="IFNf2uhesNQWuGmL52Zz-108">
          <mxGeometry relative="1" as="geometry" />
        </mxCell>
        <mxCell id="IFNf2uhesNQWuGmL52Zz-109" value="Concat" style="rounded=1;whiteSpace=wrap;html=1;fillColor=#FFD966;strokeColor=#000000;" vertex="1" parent="1">
          <mxGeometry x="300" y="460" width="80" height="30" as="geometry" />
        </mxCell>
        <mxCell id="IFNf2uhesNQWuGmL52Zz-119" style="edgeStyle=orthogonalEdgeStyle;rounded=0;orthogonalLoop=1;jettySize=auto;html=1;exitX=0.5;exitY=0;exitDx=0;exitDy=0;entryX=0.5;entryY=1;entryDx=0;entryDy=0;fontSize=12;fontColor=#3399FF;" edge="1" parent="1" source="IFNf2uhesNQWuGmL52Zz-110" target="IFNf2uhesNQWuGmL52Zz-10">
          <mxGeometry relative="1" as="geometry" />
        </mxCell>
        <mxCell id="IFNf2uhesNQWuGmL52Zz-139" style="edgeStyle=orthogonalEdgeStyle;rounded=0;orthogonalLoop=1;jettySize=auto;html=1;exitX=1;exitY=0.5;exitDx=0;exitDy=0;entryX=0;entryY=0.5;entryDx=0;entryDy=0;fontSize=12;fontColor=#00994D;" edge="1" parent="1" source="IFNf2uhesNQWuGmL52Zz-110" target="IFNf2uhesNQWuGmL52Zz-138">
          <mxGeometry relative="1" as="geometry">
            <Array as="points">
              <mxPoint x="450" y="575" />
              <mxPoint x="450" y="253" />
            </Array>
          </mxGeometry>
        </mxCell>
        <mxCell id="IFNf2uhesNQWuGmL52Zz-110" value="C3_2_1" style="rounded=1;whiteSpace=wrap;html=1;fillColor=#F19C99;strokeColor=#000000;fontSize=13;" vertex="1" parent="1">
          <mxGeometry x="315" y="560" width="50" height="30" as="geometry" />
        </mxCell>
        <mxCell id="IFNf2uhesNQWuGmL52Zz-111" value="22" style="text;html=1;strokeColor=none;fillColor=none;align=center;verticalAlign=middle;whiteSpace=wrap;rounded=0;shadow=0;fontSize=12;" vertex="1" parent="1">
          <mxGeometry x="300" y="187" width="15" height="30" as="geometry" />
        </mxCell>
        <mxCell id="IFNf2uhesNQWuGmL52Zz-112" value="21" style="text;html=1;strokeColor=none;fillColor=none;align=center;verticalAlign=middle;whiteSpace=wrap;rounded=0;shadow=0;fontSize=12;" vertex="1" parent="1">
          <mxGeometry x="300" y="260" width="15" height="30" as="geometry" />
        </mxCell>
        <mxCell id="IFNf2uhesNQWuGmL52Zz-114" value="20" style="text;html=1;strokeColor=none;fillColor=none;align=center;verticalAlign=middle;whiteSpace=wrap;rounded=0;shadow=0;fontSize=12;" vertex="1" parent="1">
          <mxGeometry x="300" y="335" width="15" height="30" as="geometry" />
        </mxCell>
        <mxCell id="IFNf2uhesNQWuGmL52Zz-115" value="17" style="text;html=1;strokeColor=none;fillColor=none;align=center;verticalAlign=middle;whiteSpace=wrap;rounded=0;shadow=0;fontSize=12;" vertex="1" parent="1">
          <mxGeometry x="300" y="540" width="15" height="30" as="geometry" />
        </mxCell>
        <mxCell id="IFNf2uhesNQWuGmL52Zz-116" value="18" style="text;html=1;strokeColor=none;fillColor=none;align=center;verticalAlign=middle;whiteSpace=wrap;rounded=0;shadow=0;fontSize=12;" vertex="1" parent="1">
          <mxGeometry x="300" y="490" width="15" height="30" as="geometry" />
        </mxCell>
        <mxCell id="IFNf2uhesNQWuGmL52Zz-117" value="19" style="text;html=1;strokeColor=none;fillColor=none;align=center;verticalAlign=middle;whiteSpace=wrap;rounded=0;shadow=0;fontSize=12;" vertex="1" parent="1">
          <mxGeometry x="300" y="433" width="15" height="30" as="geometry" />
        </mxCell>
        <mxCell id="IFNf2uhesNQWuGmL52Zz-124" value="&lt;font color=&quot;#3399ff&quot; style=&quot;font-size: 10px;&quot;&gt;80*80*256&lt;/font&gt;" style="text;html=1;strokeColor=none;fillColor=none;align=center;verticalAlign=middle;whiteSpace=wrap;rounded=0;shadow=0;dashed=1;fontColor=#F19C99;" vertex="1" parent="1">
          <mxGeometry x="220" y="570" width="60" height="30" as="geometry" />
        </mxCell>
        <mxCell id="IFNf2uhesNQWuGmL52Zz-125" value="&lt;font color=&quot;#00994d&quot; style=&quot;font-size: 10px;&quot;&gt;80*80*128&lt;/font&gt;" style="text;html=1;strokeColor=none;fillColor=none;align=center;verticalAlign=middle;whiteSpace=wrap;rounded=0;shadow=0;dashed=1;fontColor=#F19C99;" vertex="1" parent="1">
          <mxGeometry x="370" y="550" width="60" height="30" as="geometry" />
        </mxCell>
        <mxCell id="IFNf2uhesNQWuGmL52Zz-126" value="&lt;font color=&quot;#3399ff&quot; style=&quot;font-size: 10px;&quot;&gt;40*40*128&lt;/font&gt;" style="text;html=1;strokeColor=none;fillColor=none;align=center;verticalAlign=middle;whiteSpace=wrap;rounded=0;shadow=0;dashed=1;fontColor=#F19C99;" vertex="1" parent="1">
          <mxGeometry x="364" y="485" width="60" height="30" as="geometry" />
        </mxCell>
        <mxCell id="IFNf2uhesNQWuGmL52Zz-128" value="&lt;font color=&quot;#3399ff&quot; style=&quot;font-size: 10px;&quot;&gt;40*40*256&lt;/font&gt;" style="text;html=1;strokeColor=none;fillColor=none;align=center;verticalAlign=middle;whiteSpace=wrap;rounded=0;shadow=0;dashed=1;fontColor=#F19C99;" vertex="1" parent="1">
          <mxGeometry x="364" y="443" width="60" height="20" as="geometry" />
        </mxCell>
        <mxCell id="IFNf2uhesNQWuGmL52Zz-129" value="&lt;font color=&quot;#00994d&quot; style=&quot;font-size: 10px;&quot;&gt;40*40*128&lt;/font&gt;" style="text;html=1;strokeColor=none;fillColor=none;align=center;verticalAlign=middle;whiteSpace=wrap;rounded=0;shadow=0;dashed=1;fontColor=#F19C99;" vertex="1" parent="1">
          <mxGeometry x="370" y="356" width="60" height="30" as="geometry" />
        </mxCell>
        <mxCell id="IFNf2uhesNQWuGmL52Zz-130" value="&lt;font color=&quot;#3399ff&quot; style=&quot;font-size: 10px;&quot;&gt;20*20*256&lt;/font&gt;" style="text;html=1;strokeColor=none;fillColor=none;align=center;verticalAlign=middle;whiteSpace=wrap;rounded=0;shadow=0;dashed=1;fontColor=#F19C99;" vertex="1" parent="1">
          <mxGeometry x="350" y="250" width="60" height="20" as="geometry" />
        </mxCell>
        <mxCell id="IFNf2uhesNQWuGmL52Zz-141" style="edgeStyle=orthogonalEdgeStyle;rounded=0;orthogonalLoop=1;jettySize=auto;html=1;exitX=1;exitY=0.5;exitDx=0;exitDy=0;entryX=0;entryY=0.5;entryDx=0;entryDy=0;fontSize=12;fontColor=#00994D;" edge="1" parent="1" source="IFNf2uhesNQWuGmL52Zz-133" target="IFNf2uhesNQWuGmL52Zz-9">
          <mxGeometry relative="1" as="geometry" />
        </mxCell>
        <mxCell id="IFNf2uhesNQWuGmL52Zz-133" value="C3_2_1" style="rounded=1;whiteSpace=wrap;html=1;fillColor=#F19C99;strokeColor=#000000;fontSize=13;" vertex="1" parent="1">
          <mxGeometry x="315" y="140" width="50" height="30" as="geometry" />
        </mxCell>
        <mxCell id="IFNf2uhesNQWuGmL52Zz-135" value="&lt;font color=&quot;#3399ff&quot; style=&quot;font-size: 10px;&quot;&gt;20*20*512&lt;/font&gt;" style="text;html=1;strokeColor=none;fillColor=none;align=center;verticalAlign=middle;whiteSpace=wrap;rounded=0;shadow=0;dashed=1;fontColor=#F19C99;" vertex="1" parent="1">
          <mxGeometry x="350" y="180" width="60" height="20" as="geometry" />
        </mxCell>
        <mxCell id="IFNf2uhesNQWuGmL52Zz-136" value="&lt;font color=&quot;#00994d&quot; style=&quot;font-size: 10px;&quot;&gt;20*20*256&lt;/font&gt;" style="text;html=1;strokeColor=none;fillColor=none;align=center;verticalAlign=middle;whiteSpace=wrap;rounded=0;shadow=0;dashed=1;fontColor=#F19C99;" vertex="1" parent="1">
          <mxGeometry x="370" y="130" width="60" height="30" as="geometry" />
        </mxCell>
        <mxCell id="IFNf2uhesNQWuGmL52Zz-143" style="edgeStyle=orthogonalEdgeStyle;rounded=0;orthogonalLoop=1;jettySize=auto;html=1;exitX=1;exitY=0.5;exitDx=0;exitDy=0;fontSize=12;fontColor=#00994D;entryX=0;entryY=0.5;entryDx=0;entryDy=0;" edge="1" parent="1" source="IFNf2uhesNQWuGmL52Zz-137" target="IFNf2uhesNQWuGmL52Zz-145">
          <mxGeometry relative="1" as="geometry">
            <mxPoint x="615" y="202" as="targetPoint" />
          </mxGeometry>
        </mxCell>
        <mxCell id="IFNf2uhesNQWuGmL52Zz-137" value="Conv2d" style="rounded=1;whiteSpace=wrap;html=1;fillColor=#66CC00;strokeColor=#000000;" vertex="1" parent="1">
          <mxGeometry x="535" y="187" width="50" height="30" as="geometry" />
        </mxCell>
        <mxCell id="IFNf2uhesNQWuGmL52Zz-144" style="edgeStyle=orthogonalEdgeStyle;rounded=0;orthogonalLoop=1;jettySize=auto;html=1;exitX=1;exitY=0.5;exitDx=0;exitDy=0;fontSize=12;fontColor=#00994D;entryX=0;entryY=0.5;entryDx=0;entryDy=0;" edge="1" parent="1" source="IFNf2uhesNQWuGmL52Zz-138" target="IFNf2uhesNQWuGmL52Zz-146">
          <mxGeometry relative="1" as="geometry">
            <mxPoint x="615" y="253.39130434782624" as="targetPoint" />
          </mxGeometry>
        </mxCell>
        <mxCell id="IFNf2uhesNQWuGmL52Zz-138" value="Conv2d" style="rounded=1;whiteSpace=wrap;html=1;fillColor=#66CC00;strokeColor=#000000;" vertex="1" parent="1">
          <mxGeometry x="535" y="238" width="50" height="30" as="geometry" />
        </mxCell>
        <mxCell id="IFNf2uhesNQWuGmL52Zz-151" style="edgeStyle=orthogonalEdgeStyle;rounded=0;orthogonalLoop=1;jettySize=auto;html=1;exitX=1;exitY=0.5;exitDx=0;exitDy=0;entryX=0;entryY=0.5;entryDx=0;entryDy=0;fontSize=12;fontColor=#00994D;" edge="1" parent="1" source="IFNf2uhesNQWuGmL52Zz-145" target="IFNf2uhesNQWuGmL52Zz-148">
          <mxGeometry relative="1" as="geometry" />
        </mxCell>
        <mxCell id="IFNf2uhesNQWuGmL52Zz-145" value="view" style="rounded=1;whiteSpace=wrap;html=1;fillColor=#f5f5f5;strokeColor=#666666;fontColor=#333333;" vertex="1" parent="1">
          <mxGeometry x="615" y="187" width="50" height="30" as="geometry" />
        </mxCell>
        <mxCell id="IFNf2uhesNQWuGmL52Zz-152" style="edgeStyle=orthogonalEdgeStyle;rounded=0;orthogonalLoop=1;jettySize=auto;html=1;exitX=1;exitY=0.5;exitDx=0;exitDy=0;entryX=0;entryY=0.5;entryDx=0;entryDy=0;fontSize=12;fontColor=#00994D;" edge="1" parent="1" source="IFNf2uhesNQWuGmL52Zz-146" target="IFNf2uhesNQWuGmL52Zz-149">
          <mxGeometry relative="1" as="geometry" />
        </mxCell>
        <mxCell id="IFNf2uhesNQWuGmL52Zz-146" value="view" style="rounded=1;whiteSpace=wrap;html=1;fillColor=#f5f5f5;strokeColor=#666666;fontColor=#333333;" vertex="1" parent="1">
          <mxGeometry x="615" y="238" width="50" height="30" as="geometry" />
        </mxCell>
        <mxCell id="IFNf2uhesNQWuGmL52Zz-147" value="permute" style="rounded=1;whiteSpace=wrap;html=1;fillColor=#f5f5f5;strokeColor=#666666;fontColor=#333333;" vertex="1" parent="1">
          <mxGeometry x="696.5" y="140" width="50" height="30" as="geometry" />
        </mxCell>
        <mxCell id="IFNf2uhesNQWuGmL52Zz-148" value="permute" style="rounded=1;whiteSpace=wrap;html=1;fillColor=#f5f5f5;strokeColor=#666666;fontColor=#333333;" vertex="1" parent="1">
          <mxGeometry x="695" y="187" width="50" height="30" as="geometry" />
        </mxCell>
        <mxCell id="IFNf2uhesNQWuGmL52Zz-149" value="permute" style="rounded=1;whiteSpace=wrap;html=1;fillColor=#f5f5f5;strokeColor=#666666;fontColor=#333333;" vertex="1" parent="1">
          <mxGeometry x="695" y="238" width="50" height="30" as="geometry" />
        </mxCell>
        <mxCell id="IFNf2uhesNQWuGmL52Zz-182" value="23" style="text;html=1;strokeColor=none;fillColor=none;align=center;verticalAlign=middle;whiteSpace=wrap;rounded=0;shadow=0;fontSize=12;" vertex="1" parent="1">
          <mxGeometry x="300" y="120" width="15" height="30" as="geometry" />
        </mxCell>
        <mxCell id="IFNf2uhesNQWuGmL52Zz-184" value="&lt;b style=&quot;&quot;&gt;&lt;font style=&quot;font-size: 15px;&quot; color=&quot;#990099&quot;&gt;Neck&lt;/font&gt;&lt;/b&gt;" style="text;html=1;strokeColor=none;fillColor=none;align=center;verticalAlign=middle;whiteSpace=wrap;rounded=0;shadow=0;dashed=1;" vertex="1" parent="1">
          <mxGeometry x="245" y="105" width="60" height="30" as="geometry" />
        </mxCell>
        <mxCell id="IFNf2uhesNQWuGmL52Zz-186" value="&lt;b style=&quot;&quot;&gt;&lt;font color=&quot;#00994d&quot; style=&quot;font-size: 15px;&quot;&gt;Detect&lt;/font&gt;&lt;/b&gt;" style="text;html=1;strokeColor=none;fillColor=none;align=center;verticalAlign=middle;whiteSpace=wrap;rounded=0;shadow=0;dashed=1;" vertex="1" parent="1">
          <mxGeometry x="608.99" y="105" width="60" height="30" as="geometry" />
        </mxCell>
        <mxCell id="IFNf2uhesNQWuGmL52Zz-187" value="CBS" style="rounded=1;whiteSpace=wrap;html=1;fillColor=#fff2cc;strokeColor=#000000;fontSize=13;" vertex="1" parent="1">
          <mxGeometry x="496.49" y="330" width="50" height="30" as="geometry" />
        </mxCell>
        <mxCell id="IFNf2uhesNQWuGmL52Zz-201" style="edgeStyle=orthogonalEdgeStyle;rounded=0;orthogonalLoop=1;jettySize=auto;html=1;exitX=1;exitY=0.5;exitDx=0;exitDy=0;entryX=0;entryY=0.5;entryDx=0;entryDy=0;fontSize=15;fontColor=#000000;" edge="1" parent="1" source="IFNf2uhesNQWuGmL52Zz-188" target="IFNf2uhesNQWuGmL52Zz-189">
          <mxGeometry relative="1" as="geometry">
            <mxPoint x="571.49" y="345" as="sourcePoint" />
          </mxGeometry>
        </mxCell>
        <mxCell id="IFNf2uhesNQWuGmL52Zz-188" value="&lt;font color=&quot;#000000&quot;&gt;=&lt;/font&gt;" style="text;html=1;strokeColor=none;fillColor=none;align=center;verticalAlign=middle;whiteSpace=wrap;rounded=0;shadow=0;dashed=1;fontSize=15;fontColor=#00994D;" vertex="1" parent="1">
          <mxGeometry x="546.49" y="330" width="20" height="30" as="geometry" />
        </mxCell>
        <mxCell id="IFNf2uhesNQWuGmL52Zz-192" style="edgeStyle=orthogonalEdgeStyle;rounded=0;orthogonalLoop=1;jettySize=auto;html=1;exitX=1;exitY=0.5;exitDx=0;exitDy=0;entryX=0;entryY=0.5;entryDx=0;entryDy=0;fontSize=15;fontColor=#000000;" edge="1" parent="1" source="IFNf2uhesNQWuGmL52Zz-189" target="IFNf2uhesNQWuGmL52Zz-190">
          <mxGeometry relative="1" as="geometry" />
        </mxCell>
        <mxCell id="IFNf2uhesNQWuGmL52Zz-189" value="Conv2d" style="rounded=1;whiteSpace=wrap;html=1;fillColor=#66CC00;strokeColor=#000000;" vertex="1" parent="1">
          <mxGeometry x="582.99" y="330" width="50" height="30" as="geometry" />
        </mxCell>
        <mxCell id="IFNf2uhesNQWuGmL52Zz-193" style="edgeStyle=orthogonalEdgeStyle;rounded=0;orthogonalLoop=1;jettySize=auto;html=1;exitX=1;exitY=0.5;exitDx=0;exitDy=0;entryX=0;entryY=0.5;entryDx=0;entryDy=0;fontSize=15;fontColor=#000000;" edge="1" parent="1" source="IFNf2uhesNQWuGmL52Zz-190" target="IFNf2uhesNQWuGmL52Zz-191">
          <mxGeometry relative="1" as="geometry" />
        </mxCell>
        <mxCell id="IFNf2uhesNQWuGmL52Zz-190" value="&lt;font color=&quot;#000000&quot;&gt;BN&lt;/font&gt;" style="rounded=1;whiteSpace=wrap;html=1;fillColor=#007FFF;strokeColor=#000000;fontColor=#ffffff;" vertex="1" parent="1">
          <mxGeometry x="647.99" y="330" width="50" height="30" as="geometry" />
        </mxCell>
        <mxCell id="IFNf2uhesNQWuGmL52Zz-191" value="SiLU" style="rounded=1;whiteSpace=wrap;html=1;fillColor=#FF8000;strokeColor=#000000;" vertex="1" parent="1">
          <mxGeometry x="717.99" y="330" width="50" height="30" as="geometry" />
        </mxCell>
        <mxCell id="IFNf2uhesNQWuGmL52Zz-195" value="C3_1_X" style="rounded=1;whiteSpace=wrap;html=1;fillColor=#99FFFF;strokeColor=#000000;fontSize=13;" vertex="1" parent="1">
          <mxGeometry x="78.75" y="660" width="50" height="30" as="geometry" />
        </mxCell>
        <mxCell id="IFNf2uhesNQWuGmL52Zz-202" style="edgeStyle=orthogonalEdgeStyle;rounded=0;orthogonalLoop=1;jettySize=auto;html=1;exitX=1;exitY=0.5;exitDx=0;exitDy=0;entryX=0;entryY=0.5;entryDx=0;entryDy=0;fontSize=15;fontColor=#000000;" edge="1" parent="1" source="IFNf2uhesNQWuGmL52Zz-196" target="IFNf2uhesNQWuGmL52Zz-197">
          <mxGeometry relative="1" as="geometry">
            <mxPoint x="158.75" y="675.0000000000002" as="sourcePoint" />
          </mxGeometry>
        </mxCell>
        <mxCell id="IFNf2uhesNQWuGmL52Zz-196" value="&lt;font color=&quot;#000000&quot;&gt;=&lt;/font&gt;" style="text;html=1;strokeColor=none;fillColor=none;align=center;verticalAlign=middle;whiteSpace=wrap;rounded=0;shadow=0;dashed=1;fontSize=15;fontColor=#00994D;" vertex="1" parent="1">
          <mxGeometry x="128.75" y="660" width="20" height="30" as="geometry" />
        </mxCell>
        <mxCell id="IFNf2uhesNQWuGmL52Zz-203" style="edgeStyle=orthogonalEdgeStyle;rounded=0;orthogonalLoop=1;jettySize=auto;html=1;exitX=1;exitY=0.5;exitDx=0;exitDy=0;entryX=0;entryY=0.5;entryDx=0;entryDy=0;fontSize=15;fontColor=#000000;" edge="1" parent="1" source="IFNf2uhesNQWuGmL52Zz-197" target="IFNf2uhesNQWuGmL52Zz-198">
          <mxGeometry relative="1" as="geometry" />
        </mxCell>
        <mxCell id="IFNf2uhesNQWuGmL52Zz-197" value="CBS" style="rounded=1;whiteSpace=wrap;html=1;fillColor=#fff2cc;strokeColor=#000000;fontSize=13;" vertex="1" parent="1">
          <mxGeometry x="178.75" y="660" width="50" height="30" as="geometry" />
        </mxCell>
        <mxCell id="IFNf2uhesNQWuGmL52Zz-204" style="edgeStyle=orthogonalEdgeStyle;rounded=0;orthogonalLoop=1;jettySize=auto;html=1;exitX=1;exitY=0.5;exitDx=0;exitDy=0;fontSize=15;fontColor=#000000;entryX=0;entryY=0.5;entryDx=0;entryDy=0;" edge="1" parent="1" source="IFNf2uhesNQWuGmL52Zz-198" target="IFNf2uhesNQWuGmL52Zz-199">
          <mxGeometry relative="1" as="geometry">
            <mxPoint x="358.75" y="675.3157894736844" as="targetPoint" />
          </mxGeometry>
        </mxCell>
        <mxCell id="IFNf2uhesNQWuGmL52Zz-198" value="Bottleneck1*X" style="rounded=1;whiteSpace=wrap;html=1;fillColor=#99CCFF;strokeColor=#000000;fontSize=13;" vertex="1" parent="1">
          <mxGeometry x="248.75" y="660" width="95" height="30" as="geometry" />
        </mxCell>
        <mxCell id="IFNf2uhesNQWuGmL52Zz-205" style="edgeStyle=orthogonalEdgeStyle;rounded=0;orthogonalLoop=1;jettySize=auto;html=1;exitX=1;exitY=0.5;exitDx=0;exitDy=0;entryX=0;entryY=0.5;entryDx=0;entryDy=0;fontSize=15;fontColor=#000000;" edge="1" parent="1" source="IFNf2uhesNQWuGmL52Zz-199" target="IFNf2uhesNQWuGmL52Zz-200">
          <mxGeometry relative="1" as="geometry" />
        </mxCell>
        <mxCell id="IFNf2uhesNQWuGmL52Zz-199" value="Concat" style="rounded=1;whiteSpace=wrap;html=1;fillColor=#FFD966;strokeColor=#000000;" vertex="1" parent="1">
          <mxGeometry x="362.75" y="660" width="80" height="30" as="geometry" />
        </mxCell>
        <mxCell id="IFNf2uhesNQWuGmL52Zz-206" style="edgeStyle=orthogonalEdgeStyle;rounded=0;orthogonalLoop=1;jettySize=auto;html=1;exitX=1;exitY=0.5;exitDx=0;exitDy=0;fontSize=15;fontColor=#000000;" edge="1" parent="1" source="IFNf2uhesNQWuGmL52Zz-200">
          <mxGeometry relative="1" as="geometry">
            <mxPoint x="538.75" y="675.0000000000002" as="targetPoint" />
          </mxGeometry>
        </mxCell>
        <mxCell id="IFNf2uhesNQWuGmL52Zz-200" value="CBS" style="rounded=1;whiteSpace=wrap;html=1;fillColor=#fff2cc;strokeColor=#000000;fontSize=13;" vertex="1" parent="1">
          <mxGeometry x="460.25" y="660" width="50" height="30" as="geometry" />
        </mxCell>
        <mxCell id="IFNf2uhesNQWuGmL52Zz-210" style="edgeStyle=orthogonalEdgeStyle;rounded=0;orthogonalLoop=1;jettySize=auto;html=1;exitX=1;exitY=0.5;exitDx=0;exitDy=0;entryX=0.5;entryY=1;entryDx=0;entryDy=0;fontSize=15;fontColor=#000000;" edge="1" parent="1" source="IFNf2uhesNQWuGmL52Zz-207" target="IFNf2uhesNQWuGmL52Zz-199">
          <mxGeometry relative="1" as="geometry" />
        </mxCell>
        <mxCell id="IFNf2uhesNQWuGmL52Zz-207" value="CBS" style="rounded=1;whiteSpace=wrap;html=1;fillColor=#fff2cc;strokeColor=#000000;fontSize=13;" vertex="1" parent="1">
          <mxGeometry x="271.25" y="710" width="50" height="30" as="geometry" />
        </mxCell>
        <mxCell id="IFNf2uhesNQWuGmL52Zz-209" value="" style="endArrow=classic;html=1;rounded=0;fontSize=15;fontColor=#000000;entryX=0;entryY=0.5;entryDx=0;entryDy=0;" edge="1" parent="1" target="IFNf2uhesNQWuGmL52Zz-207">
          <mxGeometry width="50" height="50" relative="1" as="geometry">
            <mxPoint x="158.75" y="675" as="sourcePoint" />
            <mxPoint x="271.25" y="720" as="targetPoint" />
            <Array as="points">
              <mxPoint x="158.75" y="725" />
            </Array>
          </mxGeometry>
        </mxCell>
        <mxCell id="IFNf2uhesNQWuGmL52Zz-211" value="C3_2_X" style="rounded=1;whiteSpace=wrap;html=1;fillColor=#99FFFF;strokeColor=#000000;fontSize=13;" vertex="1" parent="1">
          <mxGeometry x="76.25" y="760" width="50" height="30" as="geometry" />
        </mxCell>
        <mxCell id="IFNf2uhesNQWuGmL52Zz-212" style="edgeStyle=orthogonalEdgeStyle;rounded=0;orthogonalLoop=1;jettySize=auto;html=1;exitX=1;exitY=0.5;exitDx=0;exitDy=0;entryX=0;entryY=0.5;entryDx=0;entryDy=0;fontSize=15;fontColor=#000000;" edge="1" parent="1" source="IFNf2uhesNQWuGmL52Zz-213" target="IFNf2uhesNQWuGmL52Zz-215">
          <mxGeometry relative="1" as="geometry">
            <mxPoint x="156.25" y="775.0000000000002" as="sourcePoint" />
          </mxGeometry>
        </mxCell>
        <mxCell id="IFNf2uhesNQWuGmL52Zz-213" value="&lt;font color=&quot;#000000&quot;&gt;=&lt;/font&gt;" style="text;html=1;strokeColor=none;fillColor=none;align=center;verticalAlign=middle;whiteSpace=wrap;rounded=0;shadow=0;dashed=1;fontSize=15;fontColor=#00994D;" vertex="1" parent="1">
          <mxGeometry x="126.25" y="760" width="20" height="30" as="geometry" />
        </mxCell>
        <mxCell id="IFNf2uhesNQWuGmL52Zz-214" style="edgeStyle=orthogonalEdgeStyle;rounded=0;orthogonalLoop=1;jettySize=auto;html=1;exitX=1;exitY=0.5;exitDx=0;exitDy=0;entryX=0;entryY=0.5;entryDx=0;entryDy=0;fontSize=15;fontColor=#000000;" edge="1" parent="1" source="IFNf2uhesNQWuGmL52Zz-215" target="IFNf2uhesNQWuGmL52Zz-217">
          <mxGeometry relative="1" as="geometry" />
        </mxCell>
        <mxCell id="IFNf2uhesNQWuGmL52Zz-215" value="CBS" style="rounded=1;whiteSpace=wrap;html=1;fillColor=#fff2cc;strokeColor=#000000;fontSize=13;" vertex="1" parent="1">
          <mxGeometry x="176.25" y="760" width="50" height="30" as="geometry" />
        </mxCell>
        <mxCell id="IFNf2uhesNQWuGmL52Zz-216" style="edgeStyle=orthogonalEdgeStyle;rounded=0;orthogonalLoop=1;jettySize=auto;html=1;exitX=1;exitY=0.5;exitDx=0;exitDy=0;fontSize=15;fontColor=#000000;entryX=0;entryY=0.5;entryDx=0;entryDy=0;" edge="1" parent="1" source="IFNf2uhesNQWuGmL52Zz-217" target="IFNf2uhesNQWuGmL52Zz-219">
          <mxGeometry relative="1" as="geometry">
            <mxPoint x="356.25" y="775.3157894736844" as="targetPoint" />
          </mxGeometry>
        </mxCell>
        <mxCell id="IFNf2uhesNQWuGmL52Zz-217" value="Bottleneck2*X" style="rounded=1;whiteSpace=wrap;html=1;fillColor=#99CCFF;strokeColor=#000000;fontSize=13;" vertex="1" parent="1">
          <mxGeometry x="246.25" y="760" width="95" height="30" as="geometry" />
        </mxCell>
        <mxCell id="IFNf2uhesNQWuGmL52Zz-218" style="edgeStyle=orthogonalEdgeStyle;rounded=0;orthogonalLoop=1;jettySize=auto;html=1;exitX=1;exitY=0.5;exitDx=0;exitDy=0;entryX=0;entryY=0.5;entryDx=0;entryDy=0;fontSize=15;fontColor=#000000;" edge="1" parent="1" source="IFNf2uhesNQWuGmL52Zz-219" target="IFNf2uhesNQWuGmL52Zz-221">
          <mxGeometry relative="1" as="geometry" />
        </mxCell>
        <mxCell id="IFNf2uhesNQWuGmL52Zz-219" value="Concat" style="rounded=1;whiteSpace=wrap;html=1;fillColor=#FFD966;strokeColor=#000000;" vertex="1" parent="1">
          <mxGeometry x="360.25" y="760" width="80" height="30" as="geometry" />
        </mxCell>
        <mxCell id="IFNf2uhesNQWuGmL52Zz-220" style="edgeStyle=orthogonalEdgeStyle;rounded=0;orthogonalLoop=1;jettySize=auto;html=1;exitX=1;exitY=0.5;exitDx=0;exitDy=0;fontSize=15;fontColor=#000000;" edge="1" parent="1" source="IFNf2uhesNQWuGmL52Zz-221">
          <mxGeometry relative="1" as="geometry">
            <mxPoint x="536.25" y="775.0000000000002" as="targetPoint" />
          </mxGeometry>
        </mxCell>
        <mxCell id="IFNf2uhesNQWuGmL52Zz-221" value="CBS" style="rounded=1;whiteSpace=wrap;html=1;fillColor=#fff2cc;strokeColor=#000000;fontSize=13;" vertex="1" parent="1">
          <mxGeometry x="457.75" y="760" width="50" height="30" as="geometry" />
        </mxCell>
        <mxCell id="IFNf2uhesNQWuGmL52Zz-222" style="edgeStyle=orthogonalEdgeStyle;rounded=0;orthogonalLoop=1;jettySize=auto;html=1;exitX=1;exitY=0.5;exitDx=0;exitDy=0;entryX=0.5;entryY=1;entryDx=0;entryDy=0;fontSize=15;fontColor=#000000;" edge="1" parent="1" source="IFNf2uhesNQWuGmL52Zz-223" target="IFNf2uhesNQWuGmL52Zz-219">
          <mxGeometry relative="1" as="geometry" />
        </mxCell>
        <mxCell id="IFNf2uhesNQWuGmL52Zz-223" value="CBS" style="rounded=1;whiteSpace=wrap;html=1;fillColor=#fff2cc;strokeColor=#000000;fontSize=13;" vertex="1" parent="1">
          <mxGeometry x="268.75" y="810" width="50" height="30" as="geometry" />
        </mxCell>
        <mxCell id="IFNf2uhesNQWuGmL52Zz-224" value="" style="endArrow=classic;html=1;rounded=0;fontSize=15;fontColor=#000000;entryX=0;entryY=0.5;entryDx=0;entryDy=0;" edge="1" parent="1" target="IFNf2uhesNQWuGmL52Zz-223">
          <mxGeometry width="50" height="50" relative="1" as="geometry">
            <mxPoint x="156.25" y="775" as="sourcePoint" />
            <mxPoint x="268.75" y="820" as="targetPoint" />
            <Array as="points">
              <mxPoint x="156.25" y="825" />
            </Array>
          </mxGeometry>
        </mxCell>
        <mxCell id="IFNf2uhesNQWuGmL52Zz-226" value="&lt;b style=&quot;&quot;&gt;&lt;font color=&quot;#994c00&quot; style=&quot;font-size: 15px;&quot;&gt;C3&lt;/font&gt;&lt;/b&gt;" style="text;html=1;strokeColor=none;fillColor=none;align=center;verticalAlign=middle;whiteSpace=wrap;rounded=0;shadow=0;dashed=1;" vertex="1" parent="1">
          <mxGeometry x="272.5" y="628" width="60" height="30" as="geometry" />
        </mxCell>
        <mxCell id="IFNf2uhesNQWuGmL52Zz-227" value="Bottleneck1*X" style="rounded=1;whiteSpace=wrap;html=1;fillColor=#99CCFF;strokeColor=#000000;fontSize=13;" vertex="1" parent="1">
          <mxGeometry x="475" y="420" width="95" height="30" as="geometry" />
        </mxCell>
        <mxCell id="IFNf2uhesNQWuGmL52Zz-235" style="edgeStyle=orthogonalEdgeStyle;rounded=0;orthogonalLoop=1;jettySize=auto;html=1;exitX=1;exitY=0.5;exitDx=0;exitDy=0;entryX=0;entryY=0.5;entryDx=0;entryDy=0;fontSize=15;fontColor=#994C00;" edge="1" parent="1" source="IFNf2uhesNQWuGmL52Zz-228" target="IFNf2uhesNQWuGmL52Zz-229">
          <mxGeometry relative="1" as="geometry" />
        </mxCell>
        <mxCell id="IFNf2uhesNQWuGmL52Zz-228" value="&lt;font color=&quot;#000000&quot;&gt;=&lt;/font&gt;" style="text;html=1;strokeColor=none;fillColor=none;align=center;verticalAlign=middle;whiteSpace=wrap;rounded=0;shadow=0;dashed=1;fontSize=15;fontColor=#00994D;" vertex="1" parent="1">
          <mxGeometry x="570" y="420" width="20" height="30" as="geometry" />
        </mxCell>
        <mxCell id="IFNf2uhesNQWuGmL52Zz-232" style="edgeStyle=orthogonalEdgeStyle;rounded=0;orthogonalLoop=1;jettySize=auto;html=1;exitX=1;exitY=0.5;exitDx=0;exitDy=0;entryX=0;entryY=0.5;entryDx=0;entryDy=0;fontSize=15;fontColor=#994C00;" edge="1" parent="1" source="IFNf2uhesNQWuGmL52Zz-229" target="IFNf2uhesNQWuGmL52Zz-230">
          <mxGeometry relative="1" as="geometry" />
        </mxCell>
        <mxCell id="IFNf2uhesNQWuGmL52Zz-229" value="CBS" style="rounded=1;whiteSpace=wrap;html=1;fillColor=#fff2cc;strokeColor=#000000;fontSize=13;" vertex="1" parent="1">
          <mxGeometry x="613.99" y="420" width="50" height="30" as="geometry" />
        </mxCell>
        <mxCell id="IFNf2uhesNQWuGmL52Zz-233" style="edgeStyle=orthogonalEdgeStyle;rounded=0;orthogonalLoop=1;jettySize=auto;html=1;exitX=1;exitY=0.5;exitDx=0;exitDy=0;entryX=0;entryY=0.5;entryDx=0;entryDy=0;fontSize=15;fontColor=#994C00;" edge="1" parent="1" source="IFNf2uhesNQWuGmL52Zz-230" target="IFNf2uhesNQWuGmL52Zz-231">
          <mxGeometry relative="1" as="geometry" />
        </mxCell>
        <mxCell id="IFNf2uhesNQWuGmL52Zz-230" value="CBS" style="rounded=1;whiteSpace=wrap;html=1;fillColor=#fff2cc;strokeColor=#000000;fontSize=13;" vertex="1" parent="1">
          <mxGeometry x="678.99" y="420" width="50" height="30" as="geometry" />
        </mxCell>
        <mxCell id="IFNf2uhesNQWuGmL52Zz-234" style="edgeStyle=orthogonalEdgeStyle;rounded=0;orthogonalLoop=1;jettySize=auto;html=1;exitX=1;exitY=0.5;exitDx=0;exitDy=0;fontSize=15;fontColor=#994C00;" edge="1" parent="1" source="IFNf2uhesNQWuGmL52Zz-231">
          <mxGeometry relative="1" as="geometry">
            <mxPoint x="798.99" y="435.39130434782624" as="targetPoint" />
          </mxGeometry>
        </mxCell>
        <mxCell id="IFNf2uhesNQWuGmL52Zz-231" value="" style="shape=orEllipse;perimeter=ellipsePerimeter;whiteSpace=wrap;html=1;backgroundOutline=1;rounded=1;shadow=0;fontSize=15;fontColor=#994C00;strokeColor=#000000;strokeWidth=2;fillColor=none;" vertex="1" parent="1">
          <mxGeometry x="750.49" y="426.25" width="17.5" height="17.5" as="geometry" />
        </mxCell>
        <mxCell id="IFNf2uhesNQWuGmL52Zz-236" value="" style="endArrow=classic;html=1;rounded=0;fontSize=15;fontColor=#000000;entryX=0.5;entryY=1;entryDx=0;entryDy=0;" edge="1" parent="1" target="IFNf2uhesNQWuGmL52Zz-231">
          <mxGeometry width="50" height="50" relative="1" as="geometry">
            <mxPoint x="600" y="435" as="sourcePoint" />
            <mxPoint x="712.5" y="485" as="targetPoint" />
            <Array as="points">
              <mxPoint x="600" y="470" />
              <mxPoint x="680" y="470" />
              <mxPoint x="759" y="470" />
            </Array>
          </mxGeometry>
        </mxCell>
        <mxCell id="IFNf2uhesNQWuGmL52Zz-237" value="Bottleneck1*X" style="rounded=1;whiteSpace=wrap;html=1;fillColor=#99CCFF;strokeColor=#000000;fontSize=13;" vertex="1" parent="1">
          <mxGeometry x="476.97" y="483" width="95" height="30" as="geometry" />
        </mxCell>
        <mxCell id="IFNf2uhesNQWuGmL52Zz-238" style="edgeStyle=orthogonalEdgeStyle;rounded=0;orthogonalLoop=1;jettySize=auto;html=1;exitX=1;exitY=0.5;exitDx=0;exitDy=0;entryX=0;entryY=0.5;entryDx=0;entryDy=0;fontSize=15;fontColor=#994C00;" edge="1" parent="1" source="IFNf2uhesNQWuGmL52Zz-239" target="IFNf2uhesNQWuGmL52Zz-241">
          <mxGeometry relative="1" as="geometry" />
        </mxCell>
        <mxCell id="IFNf2uhesNQWuGmL52Zz-239" value="&lt;font color=&quot;#000000&quot;&gt;=&lt;/font&gt;" style="text;html=1;strokeColor=none;fillColor=none;align=center;verticalAlign=middle;whiteSpace=wrap;rounded=0;shadow=0;dashed=1;fontSize=15;fontColor=#00994D;" vertex="1" parent="1">
          <mxGeometry x="571.97" y="483" width="20" height="30" as="geometry" />
        </mxCell>
        <mxCell id="IFNf2uhesNQWuGmL52Zz-240" style="edgeStyle=orthogonalEdgeStyle;rounded=0;orthogonalLoop=1;jettySize=auto;html=1;exitX=1;exitY=0.5;exitDx=0;exitDy=0;entryX=0;entryY=0.5;entryDx=0;entryDy=0;fontSize=15;fontColor=#994C00;" edge="1" parent="1" source="IFNf2uhesNQWuGmL52Zz-241" target="IFNf2uhesNQWuGmL52Zz-243">
          <mxGeometry relative="1" as="geometry" />
        </mxCell>
        <mxCell id="IFNf2uhesNQWuGmL52Zz-241" value="CBS" style="rounded=1;whiteSpace=wrap;html=1;fillColor=#fff2cc;strokeColor=#000000;fontSize=13;" vertex="1" parent="1">
          <mxGeometry x="615.96" y="483" width="50" height="30" as="geometry" />
        </mxCell>
        <mxCell id="IFNf2uhesNQWuGmL52Zz-242" style="edgeStyle=orthogonalEdgeStyle;rounded=0;orthogonalLoop=1;jettySize=auto;html=1;exitX=1;exitY=0.5;exitDx=0;exitDy=0;fontSize=15;fontColor=#994C00;" edge="1" parent="1" source="IFNf2uhesNQWuGmL52Zz-243">
          <mxGeometry relative="1" as="geometry">
            <mxPoint x="800" y="498" as="targetPoint" />
          </mxGeometry>
        </mxCell>
        <mxCell id="IFNf2uhesNQWuGmL52Zz-243" value="CBS" style="rounded=1;whiteSpace=wrap;html=1;fillColor=#fff2cc;strokeColor=#000000;fontSize=13;" vertex="1" parent="1">
          <mxGeometry x="680.96" y="483" width="50" height="30" as="geometry" />
        </mxCell>
        <mxCell id="IFNf2uhesNQWuGmL52Zz-258" value="&lt;span style=&quot;font-size: 15px;&quot;&gt;&lt;b style=&quot;&quot;&gt;&lt;font color=&quot;#ff8000&quot;&gt;CBS&lt;/font&gt;&lt;/b&gt;&lt;/span&gt;" style="text;html=1;strokeColor=none;fillColor=none;align=center;verticalAlign=middle;whiteSpace=wrap;rounded=0;shadow=0;dashed=1;" vertex="1" parent="1">
          <mxGeometry x="611.5" y="300" width="60" height="30" as="geometry" />
        </mxCell>
        <mxCell id="IFNf2uhesNQWuGmL52Zz-259" value="&lt;font color=&quot;#66b2ff&quot; style=&quot;font-size: 15px;&quot;&gt;&lt;b style=&quot;&quot;&gt;Bottleneck&lt;/b&gt;&lt;/font&gt;" style="text;html=1;strokeColor=none;fillColor=none;align=center;verticalAlign=middle;whiteSpace=wrap;rounded=0;shadow=0;dashed=1;" vertex="1" parent="1">
          <mxGeometry x="592.01" y="390" width="98.99" height="30" as="geometry" />
        </mxCell>
      </root>
    </mxGraphModel>
  </diagram>
</mxfile>
